<svg id="Layer_1" data-name="Layer 1" xmlns="http://www.w3.org/2000/svg" viewBox="0 0 43.26 43.26"><defs><style>.cls-1{fill:#231f20;}</style></defs><title>foggy</title><path class="cls-1" d="M27.2,5.74a10.92,10.92,0,0,0-10.08,6.72,8,8,0,0,0-2.86-.94,7.41,7.41,0,0,0-1-.07,8.05,8.05,0,0,0,0,16.1h14a10.91,10.91,0,1,0,0-21.81Z"/><path class="cls-1" d="M32.86,29.52a3.32,3.32,0,0,0-2.6,1.32c-.45.47-.66.68-1.15.68s-.7-.21-1.14-.68a3.23,3.23,0,0,0-5.21,0c-.44.47-.66.68-1.14.68s-.69-.21-1.14-.68a3.22,3.22,0,0,0-5.2,0c-.44.47-.66.68-1.14.68s-.69-.21-1.14-.68a3.32,3.32,0,0,0-2.6-1.32,1,1,0,0,0,0,2c.48,0,.7.21,1.14.68a3.22,3.22,0,0,0,5.2,0c.45-.47.66-.68,1.14-.68s.7.21,1.14.68a3.22,3.22,0,0,0,5.2,0c.45-.47.66-.68,1.14-.68s.7.21,1.15.69a3.35,3.35,0,0,0,2.6,1.31,3.39,3.39,0,0,0,2.61-1.31c.44-.48.66-.69,1.14-.69a1,1,0,0,0,0-2Z"/><path class="cls-1" d="M32.86,34.52a3.32,3.32,0,0,0-2.6,1.32c-.45.47-.66.68-1.15.68s-.7-.21-1.14-.68a3.23,3.23,0,0,0-5.21,0c-.44.47-.66.68-1.14.68s-.69-.21-1.14-.68a3.22,3.22,0,0,0-5.2,0c-.44.47-.66.68-1.14.68s-.69-.21-1.14-.68a3.32,3.32,0,0,0-2.6-1.32,1,1,0,1,0,0,2c.48,0,.7.21,1.14.68a3.22,3.22,0,0,0,5.2,0c.45-.47.66-.68,1.14-.68s.7.21,1.14.68a3.22,3.22,0,0,0,5.2,0c.45-.47.66-.68,1.14-.68s.7.21,1.15.69a3.35,3.35,0,0,0,2.6,1.31,3.39,3.39,0,0,0,2.61-1.31c.44-.48.66-.69,1.14-.69a1,1,0,0,0,0-2Z"/></svg>