<svg id="Layer_1" data-name="Layer 1" xmlns="http://www.w3.org/2000/svg" viewBox="0 0 43.26 43.26"><defs><style>.cls-1{fill:#231f20;}</style></defs><title>rainy</title><path class="cls-1" d="M27.2,6.67a10.92,10.92,0,0,0-10.08,6.72,8.05,8.05,0,1,0-3.91,15.09h14a10.91,10.91,0,1,0,0-21.81Z"/><path class="cls-1" d="M22.08,30.76a1,1,0,0,0-1.33.47l-2.36,4.93a1,1,0,0,0,.47,1.33,1,1,0,0,0,.43.1A1,1,0,0,0,20.2,37l2.35-4.93A1,1,0,0,0,22.08,30.76Z"/><path class="cls-1" d="M14,30.76a1,1,0,0,0-1.34.47l-2.35,4.93a1,1,0,0,0,.47,1.33.94.94,0,0,0,.43.1,1,1,0,0,0,.9-.57l2.36-4.93A1,1,0,0,0,14,30.76Z"/><path class="cls-1" d="M30.2,30.76a1,1,0,0,0-1.34.47l-2.35,4.93A1,1,0,0,0,27,37.49a.94.94,0,0,0,.43.1,1,1,0,0,0,.9-.57l2.36-4.93A1,1,0,0,0,30.2,30.76Z"/></svg>