<svg id="Layer_1" data-name="Layer 1" xmlns="http://www.w3.org/2000/svg" viewBox="0 0 43.26 43.26"><defs><style>.cls-1{fill:#231f20;}</style></defs><title>snowy</title><path class="cls-1" d="M36.2,24.76l-5,1.35-3.26-1.88a6.78,6.78,0,0,0,.47-2.47,6.7,6.7,0,0,0-.47-2.47l3.26-1.89,5,1.35a1.15,1.15,0,0,0,.26,0,1,1,0,0,0,.26-2L33.62,16l2.78-1.6a1,1,0,0,0-1-1.74l-2.78,1.61.83-3.1a1,1,0,1,0-1.93-.52l-1.35,5-3.26,1.89a6.75,6.75,0,0,0-4.28-2.47V11.31l3.68-3.67a1,1,0,0,0,0-1.42,1,1,0,0,0-1.41,0L22.63,8.49V5.28a1,1,0,0,0-2,0V8.49L18.36,6.22a1,1,0,0,0-1.41,0,1,1,0,0,0,0,1.42l3.68,3.67v3.78a6.73,6.73,0,0,0-4.27,2.47l-3.27-1.89-1.35-5a1,1,0,1,0-1.93.52l.83,3.1L7.86,12.65a1,1,0,0,0-1,1.74L9.64,16l-3.1.83a1,1,0,0,0,.26,2,1.15,1.15,0,0,0,.26,0l5-1.35,3.26,1.89a6.7,6.7,0,0,0-.47,2.47,6.78,6.78,0,0,0,.47,2.47l-3.26,1.88-5-1.35a1,1,0,0,0-.52,1.94l3.1.82L6.86,29.13A1,1,0,0,0,7.36,31a1,1,0,0,0,.5-.13l2.78-1.6-.83,3.09a1,1,0,0,0,.71,1.23,1.09,1.09,0,0,0,.26,0,1,1,0,0,0,1-.74l1.35-5L16.35,26a6.82,6.82,0,0,0,4.28,2.47V32.2L17,35.88a1,1,0,0,0,.71,1.71,1,1,0,0,0,.7-.3L20.63,35v3.2a1,1,0,0,0,2,0V35l2.27,2.26a1,1,0,0,0,1.41,0,1,1,0,0,0,0-1.41L22.63,32.2V28.43A6.79,6.79,0,0,0,26.91,26l3.26,1.88,1.35,5a1,1,0,0,0,1,.74l.26,0a1,1,0,0,0,.7-1.23l-.83-3.09,2.78,1.6a1,1,0,0,0,.5.13,1,1,0,0,0,.5-1.86l-2.78-1.61,3.1-.82a1,1,0,1,0-.52-1.94Z"/></svg>