<svg id="Layer_1" data-name="Layer 1" xmlns="http://www.w3.org/2000/svg" viewBox="0 0 43.26 43.26"><defs><style>.cls-1{fill:#231f20;}</style></defs><title>sunny</title><circle class="cls-1" cx="21.63" cy="21.63" r="15.33"/><circle class="cls-1" cx="21.63" cy="3.17" r="1"/><circle class="cls-1" cx="21.63" cy="40.09" r="1"/><path class="cls-1" d="M34.69,9.58a1,1,0,0,0,.7-.3,1,1,0,0,0,0-1.41,1,1,0,0,0-1.41,0,1,1,0,0,0,0,1.41A1,1,0,0,0,34.69,9.58Z"/><path class="cls-1" d="M7.87,34a1,1,0,0,0,0,1.41,1,1,0,0,0,.71.3A1,1,0,0,0,9,35.61a1,1,0,0,0,.33-.22,1,1,0,0,0,0-1.41A1,1,0,0,0,7.87,34Z"/><path class="cls-1" d="M34,34a1,1,0,0,0,0,1.41.94.94,0,0,0,.39.24,1.13,1.13,0,0,0,.32.06,1,1,0,0,0,.37-.08.91.91,0,0,0,.33-.22,1,1,0,0,0,0-1.41A1,1,0,0,0,34,34Z"/><path class="cls-1" d="M8.58,9.58a1,1,0,0,0,.7-.3,1,1,0,0,0,0-1.41,1,1,0,0,0-1.41,0,1,1,0,0,0,0,1.41A1,1,0,0,0,8.58,9.58Z"/><circle class="cls-1" cx="40.09" cy="21.63" r="1"/><circle class="cls-1" cx="3.17" cy="21.63" r="1"/></svg>