<svg id="Layer_1" data-name="Layer 1" xmlns="http://www.w3.org/2000/svg" viewBox="0 0 43.26 43.26"><defs><style>.cls-1{fill:#231f20;}</style></defs><title>thunderstorm</title><path class="cls-1" d="M27.2,4.2a10.9,10.9,0,0,0-5.45,1.45,11,11,0,0,0-1.91,1.4A11.85,11.85,0,0,0,18.75,8.2a11.48,11.48,0,0,0-1.63,2.72,8,8,0,0,0-1.86-.75,8.05,8.05,0,1,0-2,15.84h14a10.91,10.91,0,1,0,0-21.81Z"/><polygon class="cls-1" points="25.96 28 18 28 17 33.53 19.92 33.53 18.66 39.07 26.27 31.83 24.3 31.83 25.96 28"/></svg>