<svg id="Layer_1" data-name="Layer 1" xmlns="http://www.w3.org/2000/svg" viewBox="0 0 43.26 43.26"><defs><style>.cls-1{fill:#231f20;}</style></defs><title>windy</title><path class="cls-1" d="M34.33,20.51h-27a1,1,0,0,0,0,2h27a3.61,3.61,0,1,1-3.61,3.61,1,1,0,0,0-1-1,1,1,0,0,0-1,1,5.61,5.61,0,1,0,5.61-5.61Z"/><path class="cls-1" d="M19.9,26.31H3.32a1,1,0,0,0,0,2H19.9a3.18,3.18,0,1,1-3.18,3.18,1,1,0,0,0-1-1,1,1,0,0,0-1,1,5.18,5.18,0,1,0,5.18-5.18Z"/><path class="cls-1" d="M11.32,17H30.8a5.18,5.18,0,1,0-5.18-5.18,1,1,0,0,0,1,1,1,1,0,0,0,1-1A3.18,3.18,0,1,1,30.8,15H11.32a1,1,0,0,0,0,2Z"/></svg>